PathFileType	4	(X/Y/Z)	D:\Long Term Storage\D'Arcy Smith\Coord18.trc
DataRate	CameraRate	NumFrames	NumMarkers	Units	OrigDataRate	OrigDataStartFrame	OrigNumFrames
120.00	120.00	      150	4	mm	120.00	3591	      4787
Frame#	Time	M1			M2			M3			M4			
		X1	Y1	Z1	X2	Y2	Z2	X3	Y3	Z3	X4	Y4	Z4	

3591	29.917	665.06934	544.18292	623.73755	933.07013	344.92627	86.43404							
3592	29.925	667.84406	545.72369	622.86670	933.94067	337.63318	103.35773							
3593	29.933	670.25433	545.56921	621.34381	935.15723	329.65176	122.15292							
3594	29.942	672.69080	543.89075	619.28229	936.59698	324.46552	139.01637							
3595	29.950	674.79071	540.60547	616.70605	938.53058	318.25479	157.28505							
3596	29.958	676.48279	535.85065	613.62213	940.22345	313.16238	176.10507							
3597	29.967	677.78784	529.32251	608.49323	942.60071	309.09906	195.09554							
3598	29.975	678.98907	521.71722	603.39972	944.79254	305.96826	214.58218							
3599	29.983	679.50598	512.98981	598.15094	947.21356	303.87573	234.20470							
3600	29.992	679.50922	503.76932	591.57129	949.85004	302.43454	253.50618							
3601	30.000	679.30713	493.62256	584.20923	953.40179	302.07532	274.07928							
3602	30.008	678.52008	483.15009	575.66754	955.19189	303.72885	290.77997							
3603	30.017	677.83423	470.38535	566.13031	958.44122	304.85526	312.00082							
3604	30.025	676.47668	457.52219	555.32642	961.59943	307.37894	330.42535							
3605	30.033	674.90387	444.36722	543.65656	964.65930	310.83768	348.31732							
3606	30.042	672.99622	430.86282	530.45441	967.88507	314.86694	365.70850							
3607	30.050	670.99884	417.45001	515.93127	971.08691	319.70291	382.09518							
3608	30.058	668.96429	404.11972	500.08655	974.15381	325.02747	397.65442							
3609	30.067	666.65216	390.95688	482.65204	977.13666	330.82721	412.29645							
3610	30.075	664.06049	378.38220	462.47003	979.66852	337.07462	426.03247							
3611	30.083	661.43433	366.50275	442.91901	982.56647	343.63690	438.99445							
3612	30.092	658.27246	356.33014	420.84860	984.68347	349.04730	451.14859							
3613	30.100	655.50232	345.67316	398.44583	987.62421	355.15671	459.60324							
3614	30.108	652.16180	337.04623	374.59882	989.48608	359.82028	469.36316							
3615	30.117	648.60217	329.74207	349.58182	991.62708	364.68790	476.21722							
3616	30.125	644.69702	323.94373	324.13760	993.21179	368.55807	481.85178							
3617	30.133	640.96185	319.57510	298.43576	994.45160	371.51834	486.47098							
3618	30.142	637.06281	317.15225	271.99829	995.73175	373.93646	489.29526							
3619	30.150	633.28796	316.34610	245.25697	996.77625	375.71408	491.39609							
3620	30.158	629.36829	317.07870	219.59555	997.47491	376.50406	491.70630							
3621	30.167	625.43677	320.00876	191.59074	998.16797	376.41418	490.72968							
3622	30.175	620.83807	324.34384	164.73761	998.38483	375.31479	488.37125							
3623	30.183	616.40198	330.00311	138.48851	998.18713	373.13669	485.03604							
3624	30.192	611.74982	337.41803	112.83119	997.93878	370.38461	480.25159							
3625	30.200	607.05341	346.84171	87.83153	997.66602	367.01776	474.82150							
3626	30.208	602.06708	357.85358	64.47884	996.92987	362.82306	468.27924							
3627	30.217	597.41272	369.94928	42.66381	996.03583	358.24472	459.55777							
3628	30.225	593.15887	382.94968	22.66981	995.05023	353.36575	450.21933							
3629	30.233	588.83502	396.25912	5.03945	993.92688	347.89102	438.93414							
3630	30.242	585.33905	410.05704	-10.64826	992.41949	342.80591	427.54346							
3631	30.250	582.13062	423.84201	-24.26669	990.85602	337.52078	415.69247							
3632	30.258	579.61188	436.96228	-35.51302	989.34198	332.16394	402.67389							
3633	30.267	577.55011	449.68457	-45.21517	987.55408	327.26828	389.10571							
3634	30.275	575.91467	461.06982	-53.19117	985.57654	322.75125	374.70676							
3635	30.283	574.57013	471.45874	-59.42608	983.53296	318.52283	359.68265							
3636	30.292	573.75958	480.73077	-64.44249	981.38232	314.81882	344.17273							
3637	30.300	573.17181	488.91705	-68.04995	979.35413	311.51596	327.63068							
3638	30.308	572.99585	495.97330	-70.59943	977.09045	308.95651	311.21515							
3639	30.317	573.26074	501.89508	-72.22222	974.97266	306.97095	294.09534							
3640	30.325	573.74390	506.46088	-73.12202	972.76007	305.69608	277.05222							
3641	30.333	574.49133	509.84665	-73.49465	970.49988	305.18356	259.52396							
3642	30.342	575.59094	512.10468	-73.25569	968.34674	305.45050	241.11313							
3643	30.350	576.97424	513.02734	-72.63169	966.12018	306.65527	224.13448							
3644	30.358	578.39594	512.79694	-71.84401	963.82928	308.39130	206.63939							
3645	30.367	580.11371	511.36990	-70.65066	961.74384	311.27264	189.70935							
3646	30.375	581.88293	508.76489	-69.22205	959.47089	314.53821	173.49121							
3647	30.383	583.74194	505.13071	-67.55254	957.57184	318.73557	156.93755							
3648	30.392	585.71912	500.42624	-65.45964	955.38654	323.51328	141.18745							
3649	30.400	587.61255	494.49802	-62.94427	953.34296	328.85925	125.16856							
3650	30.408	589.71088	487.69733	-59.87628	951.42975	334.74774	110.04655							
3651	30.417	591.59106	479.64520	-56.30554	949.86432	342.65637	91.70029							
3652	30.425	593.70380	470.67200	-51.89622	948.14130	349.51566	77.69328							
3653	30.433	595.71765	460.46454	-46.59748	946.50067	356.51959	64.32729							
3654	30.442	597.85956	449.31586	-40.17503	944.48846	363.98178	51.11059							
3655	30.450	599.99243	437.27847	-32.59047	942.89960	371.52237	39.24067							
3656	30.458	602.33704	424.53876	-23.82499	941.18567	378.68045	28.58186							
3657	30.467	604.58887	411.02869	-13.41496	939.72473	386.19919	18.16886							
3658	30.475	606.98230	397.13950	-1.45280	938.23456	393.78845	9.28167							
3659	30.483	609.36835	382.86133	11.79293	936.92706	401.07458	-0.17004							
3660	30.492	612.22296	368.85303	27.20901	935.62811	408.17709	-8.16842							
3661	30.500	614.51428	355.18475	43.38002	934.33838	415.06760	-15.35649							
3662	30.508	617.14130	341.46603	62.91042	933.08344	421.42166	-21.85788							
3663	30.517	619.49445	328.90039	83.09763	931.76746	427.29794	-27.55809							
3664	30.525	621.68060	316.96951	105.01568	930.47601	432.77417	-32.43663							
3665	30.533	623.90063	306.65356	127.94542	929.21954	437.55341	-36.63247							
3666	30.542	626.15259	297.57779	152.12068	927.81689	441.67294	-39.91028							
3667	30.550	628.74268	290.58356	177.25221	926.42456	445.09039	-42.71664							
3668	30.558	630.91113	285.07971	202.81078	925.16583	448.03918	-45.10585							
3669	30.567	633.04785	281.55313	228.83386	923.64984	448.87946	-44.80780							
3670	30.575	634.27533	280.08081	254.65668	922.28210	451.57367	-47.36030							
3671	30.583	636.38513	279.63785	280.48456	921.00311	452.29416	-47.78841							
3672	30.592	637.62183	281.01001	306.00317	919.67535	452.29694	-47.67911							
3673	30.600	638.72052	283.37256	331.81073	918.31372	450.45053	-46.18049							
3674	30.608	639.55316	287.53745	356.27673	917.14594	449.35370	-45.26600							
3675	30.617	640.41608	293.21460	379.73438	915.97003	447.05212	-43.27481							
3676	30.625	640.98505	299.66592	402.89560	914.82312	444.14725	-40.69201							
3677	30.633	641.52118	307.35846	424.65799	913.78418	440.98181	-38.05267							
3678	30.642	641.69348	316.16708	446.01025	912.81500	436.98276	-34.28397							
3679	30.650	641.91333	326.13364	464.86786	911.92865	432.10571	-29.72973							
3680	30.658	641.47845	336.42310	485.87735	911.35138	426.99789	-24.95790							
3681	30.667	641.38354	348.08115	503.91574	910.90137	421.34064	-19.25807							
3682	30.675	640.87982	359.94739	520.49670	910.53137	415.24292	-13.02751							
3683	30.683	640.76251	372.77850	536.07770	910.31525	408.54929	-5.93318							
3684	30.692	640.36774	385.79373	550.48877	910.30646	401.39505	1.98497							
3685	30.700	639.66748	399.29608	563.90759	910.49622	393.82202	10.94868							
3686	30.708	639.03638	414.15503	575.87366	910.84070	385.97641	20.78123							
3687	30.717	638.86597	426.81320	587.47748	911.47156	377.79086	31.40137							
3688	30.725	638.64001	440.94067	597.70929	912.52063	369.66232	42.73849							
3689	30.733	639.18823	454.15833	607.69836	913.69653	361.26218	55.34992							
3690	30.742	639.68903	468.07568	615.76300	915.26904	352.74353	69.26538							
3691	30.750	639.98376	481.56305	622.74512	916.89465	344.39304	83.52067							
3692	30.758	640.18585	494.39465	628.19073	918.71759	336.15994	98.62865							
3693	30.767	640.26385	506.61844	632.92999	920.63275	328.13004	116.95244							
3694	30.775	640.60431	518.47864	637.12543	922.99316	320.76810	133.73842							
3695	30.783	641.04791	529.09247	639.97052	925.70435	313.98004	151.17041							
3696	30.792	642.20947	538.97083	642.39905	928.96075	308.13837	169.88145							
3697	30.800	643.60602	547.75238	644.27094	931.69403	302.24863	187.87378							
3698	30.808	645.11969	555.23383	645.86151	934.99323	297.61771	206.98141							
3699	30.817	647.07245	562.07996	646.28442	939.38208	294.00781	226.78746							
3700	30.825	649.10266	567.05328	646.13824	943.25922	291.28342	246.78441							
3701	30.833	651.67554	571.14349	646.10046	946.70123	289.13904	266.86725							
3702	30.842	654.06714	574.02661	645.65320	952.08893	288.56198	287.12930							
3703	30.850	656.34705	575.91583	643.78552	955.84485	289.17944	306.79529							
3704	30.858	658.87494	576.17029	642.78290	960.06757	290.67770	326.71906							
3705	30.867	661.09961	575.88391	641.12189	964.62994	293.28110	345.81818							
3706	30.875	663.39874	573.91339	639.52692	969.26904	296.81384	364.88486							
3707	30.883	665.36444	570.82947	637.43317	973.80170	301.30939	383.09793							
3708	30.892	667.02063	566.89771	634.17841	978.50647	306.78650	400.50119							
3709	30.900	668.45685	562.01697	631.05432	982.71741	313.93457	417.01141							
3710	30.908	669.78546	556.20062	628.18976	987.06848	321.14569	432.49216							
3711	30.917	671.04181	549.32861	624.47974	991.25665	329.46686	448.60880							
3712	30.925	671.86169	541.39740	620.27301	995.25616	337.97156	462.73703							
3713	30.933	672.43066	532.42480	614.68243	999.04584	346.42340	475.53384							
3714	30.942	673.36310	523.21069	610.03430	1002.20209	355.05151	488.44662							
3715	30.950	673.23535	513.54956	604.35382	1005.69354	363.98654	499.36740							
3716	30.958	673.10046	503.47430	597.71417	1008.76605	373.12592	509.70468							
3717	30.967	672.73383	493.18118	591.44342	1011.47626	381.76642	519.04498							
3718	30.975	671.95978	481.90671	582.93475	1013.58795	389.49905	527.90363							
3719	30.983	671.62585	471.12289	574.15601	1016.02039	397.09128	534.07025							
3720	30.992	670.62561	459.20413	564.68561	1017.67419	404.57858	541.08502							
3721	31.000	669.65680	447.54868	554.72034	1019.10913	411.18304	546.90869							
3722	31.008	668.40448	435.86517	543.78491	1020.08301	417.32214	551.57410							
3723	31.017	666.93109	424.08591	531.78137	1020.80804	422.61060	555.69757							
3724	31.025	665.25586	412.26431	519.43042	1020.98230	427.07443	559.16254							
3725	31.033	663.34424	400.71829	505.81641	1020.87250	430.70264	561.73834							
3726	31.042	661.41022	389.52634	491.16241	1020.49066	433.30457	563.26508							
3727	31.050	659.29871	378.83444	475.85956	1019.67603	435.14670	564.65759							
3728	31.058	657.25720	368.76129	458.55377	1018.72015	435.86047	564.67395							
3729	31.067	654.74213	359.03467	441.87949	1017.37952	435.74542	564.06403							
3730	31.075	652.74347	349.79141	423.04221	1015.68616	434.51563	562.86145							
3731	31.083	650.30560	341.79865	405.24487	1013.84705	432.38147	560.48676							
3732	31.092	647.97168	334.39807	385.73602	1011.81726	429.63831	557.40967							
3733	31.100	645.43671	327.94006	365.22638	1009.17578	426.16339	554.61670							
3734	31.108	642.58551	321.94540	344.94836	1006.53693	421.80466	550.09021							
3735	31.117	639.43073	318.19037	322.07541	1003.81158	416.71408	544.64685							
3736	31.125	636.05157	314.81143	299.85968	1001.14117	410.90067	538.29193							
3737	31.133	631.81958	312.70999	276.77856	998.02747	404.69373	531.03418							
3738	31.142	627.55371	312.40451	253.00462	994.89941	397.97964	523.11780							
3739	31.150	623.01355	312.68857	229.56873	991.94836	390.88358	514.05304							
3740	31.158	618.45831	314.65622	205.95914	988.60004	383.54456	504.28357							
